<svg width="131" height="58" viewBox="0 0 131 58" fill="none" xmlns="http://www.w3.org/2000/svg">
<path d="M12.48 38.544C10.272 38.544 8.192 37.984 6.24 36.864C4.128 35.552 2.72 33.92 2.016 31.968C1.76 31.264 1.568 30.624 1.44 30.048C1.312 29.44 1.248 28.928 1.248 28.512C1.248 27.488 1.616 26.976 2.352 26.976C2.576 26.976 2.704 27.088 2.736 27.312C2.896 27.92 3.04 28.432 3.168 28.848C3.296 29.264 3.408 29.6 3.504 29.856C3.664 30.304 3.872 30.72 4.128 31.104C4.384 31.488 4.656 31.856 4.944 32.208C6.448 33.904 8.464 34.752 10.992 34.752C11.44 34.752 11.968 34.656 12.576 34.464C13.248 34.272 13.632 34.176 13.728 34.176C13.824 34.208 13.872 34.256 13.872 34.32C13.872 34.896 12.656 35.184 10.224 35.184C6.768 35.184 4.496 34 3.408 31.632C5.328 35.92 8.336 38.064 12.432 38.064C12.528 38.064 12.64 38.064 12.768 38.064C12.896 38.064 13.024 38.048 13.152 38.016C13.216 37.984 13.328 37.936 13.488 37.872C13.68 37.808 13.904 37.744 14.16 37.68C15.632 37.232 17.376 35.456 19.392 32.352C20.128 31.232 20.8 30.096 21.408 28.944C22.048 27.792 22.608 26.624 23.088 25.44C23.888 23.648 24.512 21.888 24.96 20.16C24.64 18.72 23.84 18 22.56 18C22.336 18 22.192 18.016 22.128 18.048C22.128 17.568 22.32 17.12 22.704 16.704C23.088 16.256 23.536 16.032 24.048 16.032C24.912 16.032 25.376 16.672 25.44 17.952C25.728 16.64 25.936 15.344 26.064 14.064C26.192 12.784 26.256 11.552 26.256 10.368C26.256 10.112 26.256 9.84 26.256 9.552C26.256 9.264 26.24 8.992 26.208 8.736C25.088 8.48 23.648 8.16 21.888 7.776C20.128 7.392 18.096 6.944 15.792 6.432C14.288 6.144 12.912 5.92 11.664 5.76C10.448 5.6 9.344 5.52 8.352 5.52C5.888 5.52 4.032 6.016 2.784 7.008C1.792 7.808 1.296 8.704 1.296 9.696C1.296 11.424 2.512 12.288 4.944 12.288C5.04 12.288 5.088 12.304 5.088 12.336C5.088 12.464 4.688 12.544 3.888 12.576C3.824 12.576 3.76 12.608 3.696 12.672C3.632 12.704 3.552 12.72 3.456 12.72C3.232 12.72 2.992 12.656 2.736 12.528C1.52 12.112 0.912 11.264 0.912 9.984C0.912 9.632 0.96 9.264 1.056 8.88C1.184 8.496 1.376 8.128 1.632 7.776C3.456 5.056 6.352 3.696 10.32 3.696C11.12 3.696 11.968 3.744 12.864 3.84C13.792 3.904 14.784 4.064 15.84 4.32L26.016 6.72C25.728 4.64 25.008 2.896 23.856 1.488C23.632 1.264 23.52 1.056 23.52 0.863997C23.52 0.607999 23.664 0.48 23.952 0.48C24.112 0.48 24.352 0.607999 24.672 0.863997C25.888 2.112 26.688 4.144 27.072 6.96C28.832 7.344 30.384 7.632 31.728 7.824L32.352 6.768C32.608 6.352 32.928 5.984 33.312 5.664C33.696 5.312 34.128 4.976 34.608 4.656C35.664 4.048 36.624 3.744 37.488 3.744C37.936 3.744 38.448 3.888 39.024 4.176C39.632 4.464 39.936 4.832 39.936 5.28C39.936 5.632 39.792 5.808 39.504 5.808C39.44 5.808 39.168 5.568 38.688 5.088C38.272 4.576 37.792 4.32 37.248 4.32C36.128 4.32 35.136 5.248 34.272 7.104L33.84 8.016C34.256 8.048 34.656 8.064 35.04 8.064C35.456 8.064 35.824 8.064 36.144 8.064C38.384 8.064 39.856 7.696 40.56 6.96C41.136 6.288 41.424 5.536 41.424 4.704C41.424 4.256 41.296 3.856 41.04 3.504C40.784 3.12 40.656 2.928 40.656 2.928C40.656 2.768 40.752 2.688 40.944 2.688C41.52 2.688 41.808 3.36 41.808 4.704C41.808 7.936 39.104 9.552 33.696 9.552H33.312L29.328 21.984C27.6 27.104 25.632 30.944 23.424 33.504C20.512 36.864 16.864 38.544 12.48 38.544ZM14.448 37.92C17.968 37.408 20.848 35.408 23.088 31.92C23.824 30.736 24.544 29.216 25.248 27.36C25.984 25.472 26.704 23.264 27.408 20.736C28.208 17.792 28.896 15.376 29.472 13.488C30.048 11.568 30.528 10.208 30.912 9.408C30.336 9.344 29.744 9.28 29.136 9.216C28.528 9.152 27.904 9.056 27.264 8.928V9.936C27.264 12.336 26.976 14.832 26.4 17.424C25.856 19.984 25.04 22.64 23.952 25.392C21.36 31.76 18.192 35.936 14.448 37.92ZM39.6893 36.24C38.5373 36.24 37.9613 35.52 37.9613 34.08C37.9613 33.312 38.2493 32.352 38.8253 31.2C39.3693 29.92 39.6413 28.992 39.6413 28.416C39.6413 28 39.4813 27.68 39.1613 27.456C38.8733 27.232 38.5053 27.024 38.0573 26.832C37.7373 26.672 37.4013 26.48 37.0493 26.256C36.6973 26.032 36.4093 25.808 36.1853 25.584C35.9613 26.064 35.4653 26.896 34.6973 28.08C33.9293 29.264 33.0973 30.48 32.2013 31.728C32.0733 31.888 31.9453 31.968 31.8173 31.968C31.6893 31.968 31.6253 31.856 31.6253 31.632C31.6253 31.408 31.7533 31.168 32.0093 30.912C32.2653 30.592 32.6333 30.08 33.1133 29.376C33.5933 28.64 34.0733 27.856 34.5533 27.024C35.0333 26.16 35.4013 25.408 35.6573 24.768C35.4973 24.224 35.3693 23.76 35.2733 23.376C35.1773 22.992 35.1293 22.608 35.1293 22.224C35.1293 21.552 35.3213 20.944 35.7053 20.4C36.0893 19.856 36.5853 19.584 37.1933 19.584C38.0573 19.584 38.4893 20.096 38.4893 21.12C38.4893 22.24 38.0573 23.408 37.1933 24.624C37.3213 24.816 37.4813 24.976 37.6733 25.104C37.8653 25.232 38.1693 25.376 38.5853 25.536C38.8093 25.632 39.0173 25.696 39.2093 25.728C39.4333 25.76 39.6253 25.776 39.7853 25.776C40.0413 25.776 40.2493 25.76 40.4093 25.728C40.6013 25.696 40.7613 25.68 40.8893 25.68C41.0813 25.68 41.3053 25.792 41.5613 26.016C41.8493 26.208 41.9933 26.512 41.9933 26.928C41.9933 27.152 41.9773 27.296 41.9453 27.36C41.9133 27.424 41.8173 27.696 41.6573 28.176C41.5293 28.624 41.2893 29.264 40.9373 30.096C40.2973 31.76 39.9773 32.928 39.9773 33.6C39.9773 34.496 40.2813 34.944 40.8893 34.944C41.5613 34.944 42.3613 34.544 43.2893 33.744C44.2493 32.944 45.1293 32 45.9293 30.912C46.0253 30.816 46.1053 30.768 46.1693 30.768C46.2973 30.768 46.3613 30.88 46.3613 31.104C46.3613 31.328 46.2813 31.536 46.1213 31.728C44.8413 33.424 43.6893 34.608 42.6653 35.28C41.6413 35.92 40.6493 36.24 39.6893 36.24ZM46.4123 36.288C45.1003 36.288 44.4443 35.648 44.4443 34.368C44.4443 33.152 45.3243 31.456 47.0843 29.28C48.6843 27.264 50.0763 25.872 51.2603 25.104C52.4443 24.336 53.5483 23.952 54.5723 23.952C55.7883 23.952 56.3963 24.304 56.3963 25.008C56.3963 25.168 56.2363 25.408 55.9163 25.728C55.5963 26.016 55.4203 26.192 55.3883 26.256C54.7803 27.248 54.4763 29.264 54.4763 32.304C54.4763 34.064 54.8603 34.944 55.6283 34.944C56.3323 34.944 57.1483 34.528 58.0763 33.696C59.0043 32.864 59.8683 31.936 60.6683 30.912C60.7643 30.816 60.8443 30.768 60.9083 30.768C61.0363 30.768 61.1003 30.848 61.1003 31.008C61.1003 31.072 61.0683 31.184 61.0043 31.344C60.9723 31.504 60.9243 31.632 60.8603 31.728C59.5483 33.488 58.4123 34.672 57.4523 35.28C56.5243 35.888 55.6123 36.192 54.7163 36.192C53.2763 36.192 52.5723 34.656 52.6043 31.584C51.9963 32.672 51.1163 33.696 49.9643 34.656C48.6203 35.744 47.4363 36.288 46.4123 36.288ZM47.7083 34.992C48.2523 34.992 48.8283 34.768 49.4363 34.32C51.3243 32.816 52.5563 30 53.1323 25.872C53.0363 25.872 52.9723 25.856 52.9403 25.824C52.3003 25.824 51.4523 26.208 50.3963 26.976C49.5003 27.584 48.7803 28.24 48.2363 28.944C46.9563 30.608 46.3163 32.048 46.3163 33.264C46.3163 34.416 46.7803 34.992 47.7083 34.992ZM63.7699 36.096C62.3619 36.096 61.6579 34.992 61.6579 32.784C61.6579 31.728 61.8499 30.72 62.2339 29.76C62.2339 29.76 62.1059 29.952 61.8499 30.336C61.6259 30.72 61.2899 31.184 60.8419 31.728C60.8099 31.824 60.6979 31.872 60.5059 31.872C60.4419 31.872 60.3939 31.824 60.3619 31.728C60.3299 31.632 60.3139 31.552 60.3139 31.488C60.3139 31.392 60.4259 31.2 60.6499 30.912C61.3539 29.984 61.9619 29.168 62.4739 28.464C62.9859 27.76 63.5459 27.104 64.1539 26.496C64.4419 26.208 64.7619 26.064 65.1139 26.064C65.5299 26.064 65.7379 26.24 65.7379 26.592C65.7379 26.528 65.6259 26.72 65.4019 27.168C65.1779 27.616 64.8259 28.32 64.3459 29.28C63.4499 31.264 63.0019 32.768 63.0019 33.792C63.0019 34.624 63.3539 35.04 64.0579 35.04C64.7299 35.04 65.4179 34.736 66.1219 34.128C66.8259 33.488 67.4499 32.704 67.9939 31.776C68.5699 30.848 68.9859 29.936 69.2419 29.04C69.2419 28.912 69.2099 28.72 69.1459 28.464C69.1139 28.208 69.0659 27.888 69.0019 27.504C68.9059 26.928 68.8579 26.432 68.8579 26.016C68.8579 24.64 69.4339 23.744 70.5859 23.328C70.8419 23.232 71.0339 23.184 71.1619 23.184C71.6419 23.184 71.8819 23.6 71.8819 24.432C71.8819 25.808 71.4659 27.296 70.6339 28.896C70.6339 30.208 70.9379 31.312 71.5459 32.208C72.1859 33.072 72.9539 33.504 73.8499 33.504C74.4899 33.504 75.1459 33.296 75.8179 32.88C76.5219 32.464 77.2099 31.808 77.8819 30.912C77.9459 30.848 78.0419 30.816 78.1699 30.816C78.2659 30.816 78.3139 30.912 78.3139 31.104C78.3139 31.296 78.2339 31.504 78.0739 31.728C77.6579 32.304 77.0339 32.88 76.2019 33.456C75.4019 34 74.5379 34.272 73.6099 34.272C72.7139 34.272 71.8819 33.92 71.1139 33.216C70.3779 32.48 69.8819 31.52 69.6259 30.336C69.4979 30.816 69.2419 31.392 68.8579 32.064C68.4739 32.736 67.9619 33.408 67.3219 34.08C66.6179 34.816 65.9619 35.344 65.3539 35.664C64.7459 35.952 64.2179 36.096 63.7699 36.096ZM82.6999 36.384C81.3879 36.384 80.2519 36.016 79.2919 35.28C78.3639 34.512 77.8999 33.36 77.8999 31.824C77.8999 30.128 78.4599 28.384 79.5799 26.592C80.1559 25.664 80.8599 24.928 81.6919 24.384C82.5239 23.808 83.2599 23.52 83.8999 23.52C84.8279 23.52 85.2919 24.08 85.2919 25.2C85.2919 26.16 84.6519 27.328 83.3719 28.704C82.1879 29.92 81.0679 30.752 80.0119 31.2C79.9799 31.328 79.9479 31.472 79.9159 31.632C79.9159 31.76 79.9159 31.904 79.9159 32.064C79.9159 34.08 81.1159 35.088 83.5159 35.088C84.8919 35.088 86.1719 34.672 87.3559 33.84C88.5719 32.976 89.6279 32 90.5239 30.912C90.6839 30.72 90.8279 30.624 90.9559 30.624C91.0839 30.624 91.1479 30.688 91.1479 30.816C91.1479 30.944 91.0839 31.12 90.9559 31.344C90.8279 31.536 90.7319 31.664 90.6679 31.728C90.1559 32.432 89.6119 33.056 89.0359 33.6C88.4919 34.144 87.7559 34.672 86.8279 35.184C86.1559 35.6 85.4519 35.904 84.7159 36.096C84.0119 36.288 83.3399 36.384 82.6999 36.384ZM80.2039 30.192C80.6199 29.968 81.0199 29.712 81.4039 29.424C81.8199 29.104 82.2199 28.736 82.6039 28.32C83.4679 27.296 83.8999 26.4 83.8999 25.632C83.8999 25.152 83.7559 24.912 83.4679 24.912C83.2119 24.912 82.8759 25.136 82.4599 25.584C82.0759 26 81.7079 26.528 81.3559 27.168C80.7479 28.416 80.3639 29.424 80.2039 30.192ZM95.3104 36.576C92.0784 36.576 90.4624 34.192 90.4624 29.424C90.4624 24.752 91.9984 19.68 95.0704 14.208C98.0784 8.768 100.926 6.048 103.614 6.048C104.574 6.048 105.214 6.704 105.534 8.016V8.64C105.534 10.944 103.758 14.832 100.206 20.304C98.7024 22.672 97.2784 24.736 95.9344 26.496C94.6224 28.256 93.3904 29.744 92.2384 30.96C92.6224 33.84 93.9504 35.28 96.2224 35.28C97.5984 35.28 98.7664 34.896 99.7264 34.128C100.686 33.328 101.71 32.256 102.798 30.912C102.99 30.72 103.118 30.624 103.182 30.624C103.278 30.624 103.326 30.704 103.326 30.864C103.326 31.088 103.214 31.376 102.99 31.728C101.614 33.488 100.318 34.736 99.1024 35.472C97.8864 36.208 96.6224 36.576 95.3104 36.576ZM92.2864 29.76C94.0144 28.064 96.2704 24.704 99.0544 19.68C101.998 14.336 103.47 10.656 103.47 8.64C103.47 7.744 103.214 7.296 102.702 7.296C100.718 7.296 98.4624 10.144 95.9344 15.84C94.7504 18.656 93.8384 21.216 93.1984 23.52C92.5904 25.824 92.2864 27.904 92.2864 29.76ZM107.639 36.576C104.407 36.576 102.791 34.192 102.791 29.424C102.791 24.752 104.327 19.68 107.398 14.208C110.407 8.768 113.255 6.048 115.943 6.048C116.903 6.048 117.543 6.704 117.863 8.016V8.64C117.863 10.944 116.087 14.832 112.535 20.304C111.031 22.672 109.607 24.736 108.263 26.496C106.951 28.256 105.719 29.744 104.567 30.96C104.951 33.84 106.279 35.28 108.551 35.28C109.927 35.28 111.095 34.896 112.055 34.128C113.015 33.328 114.039 32.256 115.127 30.912C115.319 30.72 115.447 30.624 115.511 30.624C115.607 30.624 115.655 30.704 115.655 30.864C115.655 31.088 115.543 31.376 115.319 31.728C113.943 33.488 112.647 34.736 111.431 35.472C110.215 36.208 108.951 36.576 107.639 36.576ZM104.615 29.76C106.343 28.064 108.599 24.704 111.383 19.68C114.327 14.336 115.799 10.656 115.799 8.64C115.799 7.744 115.543 7.296 115.031 7.296C113.047 7.296 110.791 10.144 108.263 15.84C107.079 18.656 106.167 21.216 105.527 23.52C104.919 25.824 104.615 27.904 104.615 29.76ZM104.751 57.84C102.671 57.84 101.055 57.312 99.9026 56.256C98.6226 55.168 97.9826 53.632 97.9826 51.648C97.9826 45.248 106.527 39.888 123.615 35.568C123.775 34 123.887 32.56 123.951 31.248C124.047 29.904 124.111 28.704 124.143 27.648C123.919 28.32 123.663 28.96 123.375 29.568C123.087 30.176 122.783 30.752 122.463 31.296C122.015 32.192 121.247 33.12 120.159 34.08C118.879 35.104 117.839 35.616 117.039 35.616C116.431 35.616 115.903 35.28 115.455 34.608C115.103 34 114.927 33.36 114.927 32.688C114.927 31.6 115.199 30.368 115.743 28.992C116.319 27.264 117.055 26.4 117.951 26.4C118.271 26.4 118.447 26.608 118.479 27.024C117.231 29.04 116.607 30.896 116.607 32.592C116.607 33.552 116.991 34.032 117.759 34.032C119.135 34.032 120.591 32.72 122.127 30.096C123.535 27.76 124.239 25.792 124.239 24.192C124.239 23.712 124.623 23.472 125.391 23.472C125.999 23.472 126.303 23.776 126.303 24.384C126.303 25.536 126.239 27.024 126.111 28.848C126.015 30.64 125.855 32.768 125.631 35.232C125.983 35.136 126.463 35.04 127.071 34.944C127.711 34.848 128.255 34.8 128.703 34.8C129.919 34.8 130.527 34.976 130.527 35.328C130.527 35.488 130.415 35.568 130.191 35.568C130.095 35.568 129.887 35.568 129.567 35.568C129.247 35.536 128.911 35.52 128.559 35.52C128.239 35.52 127.743 35.584 127.071 35.712C126.431 35.84 125.887 35.968 125.439 36.096C124.223 45.312 120.207 51.776 113.391 55.488C111.951 56.256 110.527 56.832 109.119 57.216C107.679 57.632 106.223 57.84 104.751 57.84ZM106.239 56.448C109.087 56.448 111.391 55.936 113.151 54.912C118.975 51.616 122.415 45.456 123.471 36.432C107.343 40.688 99.2786 45.6 99.2786 51.168C99.2786 54.688 101.599 56.448 106.239 56.448Z" fill="white"/>
</svg>
